<svg xmlns="http://www.w3.org/2000/svg" xmlns:xlink="http://www.w3.org/1999/xlink" width="442.222" height="115.009" viewBox="0 0 442.222 115.009">
  <defs>
    <linearGradient id="linear-gradient" x1="0.218" y1="1.157" x2="18.849" y2="-0.008" gradientUnits="objectBoundingBox">
      <stop offset="0" stop-color="#feda75"/>
      <stop offset="0.16" stop-color="#fa7e1e"/>
      <stop offset="0.5" stop-color="#d62976"/>
      <stop offset="0.75" stop-color="#962fbf"/>
      <stop offset="1" stop-color="#4f5bd5"/>
    </linearGradient>
    <linearGradient id="linear-gradient-2" x1="-0.474" y1="1.227" x2="6.127" y2="-0.459" xlink:href="#linear-gradient"/>
    <linearGradient id="linear-gradient-3" x1="-2.031" y1="1.201" x2="6.242" y2="-0.453" xlink:href="#linear-gradient"/>
    <linearGradient id="linear-gradient-4" x1="-3.059" y1="1.156" x2="5.06" y2="-0.173" xlink:href="#linear-gradient"/>
    <linearGradient id="linear-gradient-5" x1="-3.946" y1="1.199" x2="3.712" y2="-0.451" xlink:href="#linear-gradient"/>
    <linearGradient id="linear-gradient-6" x1="-4.361" y1="0.84" x2="2.175" y2="-0.315" xlink:href="#linear-gradient"/>
    <linearGradient id="linear-gradient-7" x1="-5.679" y1="1.201" x2="1.039" y2="-0.451" xlink:href="#linear-gradient"/>
    <linearGradient id="linear-gradient-8" x1="-8.146" y1="1.156" x2="-0.034" y2="-0.173" xlink:href="#linear-gradient"/>
  </defs>
  <g id="logo" transform="translate(-165.115 -461.57)">
    <g id="Сгруппировать_3" data-name="Сгруппировать 3" transform="translate(165.116 461.57)">
      <path id="Контур_17" data-name="Контур 17" d="M26.115,29.947a9.934,9.934,0,0,1-3.073,7.275,10.035,10.035,0,0,1-7.4,3.073,9.922,9.922,0,0,1-7.288-3.073A9.934,9.934,0,0,1,5.28,29.947a10.11,10.11,0,0,1,3.073-7.413,10.035,10.035,0,0,1,7.288-3.073,10.035,10.035,0,0,1,7.4,3.073A10.11,10.11,0,0,1,26.115,29.947Zm-.966,18.414v58.4H6.246v-58.4Z" transform="translate(-5.279 -19.459)" fill="url(#linear-gradient)"/>
      <path id="Контур_18" data-name="Контур 18" d="M63.736,56.378q-5.017,0-13.723,5.017v39.888H31.11v-58.4H42.788l3.236,6.146a50.889,50.889,0,0,1,11.5-5.845A34.808,34.808,0,0,1,69.28,41Q80.117,41,85,47.2t4.93,16.884v37.2H70.961V65.523a11.126,11.126,0,0,0-1.806-6.686,6.272,6.272,0,0,0-5.419-2.459Z" transform="translate(1.291 -13.98)" fill="url(#linear-gradient-2)"/>
      <path id="Контур_19" data-name="Контур 19" d="M107.5,102.586a54.126,54.126,0,0,1-11.678-1.568A26.968,26.968,0,0,1,84.87,96.163L90.4,83.883a43.426,43.426,0,0,0,8.254,2.948,31.9,31.9,0,0,0,7.639,1.141,12.179,12.179,0,0,0,5.118-1.016,3.148,3.148,0,0,0,2.233-2.835,3.913,3.913,0,0,0-2.107-3.01,22.766,22.766,0,0,0-5.845-2.647A48.757,48.757,0,0,1,91.3,71.076a13.8,13.8,0,0,1-5.657-11.289,16.306,16.306,0,0,1,6.5-13.66q6.51-5.017,17.824-5.017a45.157,45.157,0,0,1,10.662,1.505,28.85,28.85,0,0,1,10.3,4.641l-5.419,12.28a37.718,37.718,0,0,0-14.939-3.763,8.667,8.667,0,0,0-4.566,1.079,3.186,3.186,0,0,0-1.806,2.772q0,1.919,7.526,4.578,20.07,6.974,20.07,19.505,0,9.031-6.272,13.961T107.5,102.586Z" transform="translate(14.965 -13.952)" fill="url(#linear-gradient-3)"/>
      <path id="Контур_20" data-name="Контур 20" d="M152.679,47.149h13.008l3.362,14.688H152.679V81.342a10.161,10.161,0,0,0,2.045,6.623,6.861,6.861,0,0,0,5.657,2.509,16.106,16.106,0,0,0,7.526-1.932l5.419,13.133a18.816,18.816,0,0,1-6.272,3.01,26.341,26.341,0,0,1-7.827,1.254q-11.076,0-18.176-5.77t-7.112-16.382V61.837H125.51V47.149h8.429V32.335l18.815-2.885Z" transform="translate(25.302 -16.918)" fill="url(#linear-gradient-4)"/>
      <path id="Контур_21" data-name="Контур 21" d="M191.515,57.2a34.445,34.445,0,0,0-7.953,1.079,42.911,42.911,0,0,0-7.827,2.647l-5.017-14.45a44.353,44.353,0,0,1,10.951-3.763,56.17,56.17,0,0,1,12.543-1.631,28.085,28.085,0,0,1,13,2.9,20.847,20.847,0,0,1,8.78,8.128,23.255,23.255,0,0,1,3.061,11.979v37.179H208.574l-4.453-6.134q-6.51,7.526-14.325,7.526-10.612,0-16.018-5.243T168.36,83.152q0-8.918,6.021-13.371t16.495-4.453h9.157a8.617,8.617,0,0,0-2.509-5.958A8.329,8.329,0,0,0,191.515,57.2Zm-.6,19.38a6.7,6.7,0,0,0-4.879,1.806,6.134,6.134,0,0,0-1.819,4.578,5.118,5.118,0,0,0,1.568,3.763,5.544,5.544,0,0,0,4.089,1.568q5.306,0,10.236-4.578V76.579Z" transform="translate(36.201 -13.961)" fill="url(#linear-gradient-5)"/>
      <path id="Контур_22" data-name="Контур 22" d="M274.793,103.574a23.481,23.481,0,0,1-3.914,13.484,24.811,24.811,0,0,1-11.076,8.856,41.8,41.8,0,0,1-16.557,3.061,61.464,61.464,0,0,1-12.769-1.794,38.559,38.559,0,0,1-12.644-4.942l5.67-13.246a42.134,42.134,0,0,0,18.665,4.817,16.307,16.307,0,0,0,9.935-2.835,8.931,8.931,0,0,0,3.763-7.526V100.2a26.241,26.241,0,0,1-10.712,2.408q-13.622,0-21.675-7.94T215.4,72.09q0-14.563,8.191-22.817t22.277-8.254a23.105,23.105,0,0,1,8.316,1.631,27.7,27.7,0,0,1,7.827,4.641l3.123-4.34h9.633Zm-18.9-19.392V59.258a15.792,15.792,0,0,0-9.157-3.01,10.173,10.173,0,0,0-8.542,4.34q-3.224,4.328-3.224,11.44T238.217,83.4a10.825,10.825,0,0,0,9.031,4.152A15.265,15.265,0,0,0,255.89,84.182Z" transform="translate(48.165 -13.975)" fill="url(#linear-gradient-6)"/>
      <path id="Контур_23" data-name="Контур 23" d="M300.982,41.063a26.467,26.467,0,0,1,15.052,4.1,25.25,25.25,0,0,1,9.219,10.95,37.416,37.416,0,0,1,3.073,15.416v5.657H290.872q2.659,10.21,15.366,10.21a33.5,33.5,0,0,0,16.495-4.566l5.293,13.12a32.827,32.827,0,0,1-10.035,4.817,44.917,44.917,0,0,1-13.008,1.831q-16.005,0-25.225-8.065t-9.207-22.4A33.666,33.666,0,0,1,274.4,55.7a26.6,26.6,0,0,1,10.775-10.838,32.362,32.362,0,0,1,15.8-3.8ZM300.506,56.6a9.094,9.094,0,0,0-6.686,2.709,11.465,11.465,0,0,0-3.186,7.162h19.743a13.547,13.547,0,0,0-3.186-7.162A8.592,8.592,0,0,0,300.506,56.6Z" transform="translate(62.191 -13.968)" fill="url(#linear-gradient-7)"/>
      <path id="Контур_24" data-name="Контур 24" d="M346.887,47.149h13.008l3.374,14.688H346.887V81.342a10.173,10.173,0,0,0,2.045,6.623,6.849,6.849,0,0,0,5.657,2.509,16.093,16.093,0,0,0,7.526-1.932l5.419,13.133a18.74,18.74,0,0,1-6.272,3.01,26.342,26.342,0,0,1-7.827,1.254q-11.076,0-18.188-5.77t-7.137-16.294V61.837H319.68V47.149h8.429V32.335l18.815-2.885Z" transform="translate(74.689 -16.918)" fill="url(#linear-gradient-8)"/>
    </g>
  </g>
</svg>
